<svg width="20" height="19" viewBox="0 0 20 19" fill="none" xmlns="http://www.w3.org/2000/svg">
<g clip-path="url(#clip0_1097_1132)">
<path d="M13.0416 16.625V11.1103H14.8886L15.1649 8.96642H13.0416V7.59842C13.0416 6.97775 13.2142 6.55421 14.1041 6.55421H15.2393V4.63679C14.6897 4.57848 14.1374 4.5502 13.5847 4.55208C11.9483 4.55208 10.8281 5.55117 10.8281 7.38625V8.96642H8.97722V11.1103H10.8281V16.625H4.01506C3.80509 16.625 3.60373 16.5416 3.45526 16.3931C3.3068 16.2447 3.22339 16.0433 3.22339 15.8333V3.16667C3.22339 2.9567 3.3068 2.75534 3.45526 2.60687C3.60373 2.45841 3.80509 2.375 4.01506 2.375H16.6817C16.8917 2.375 17.0931 2.45841 17.2415 2.60687C17.39 2.75534 17.4734 2.9567 17.4734 3.16667V15.8333C17.4734 16.0433 17.39 16.2447 17.2415 16.3931C17.0931 16.5416 16.8917 16.625 16.6817 16.625H13.0416Z" fill="black" fill-opacity="0.5"/>
</g>
<defs>
<clipPath id="clip0_1097_1132">
<rect width="19" height="19" fill="white" transform="translate(0.848389)"/>
</clipPath>
</defs>
</svg>
