<svg width="20" height="19" viewBox="0 0 20 19" fill="none" xmlns="http://www.w3.org/2000/svg">
<g clip-path="url(#clip0_1097_1126)">
<path d="M9.92424 1.5835C12.0752 1.5835 12.3436 1.59141 13.1875 1.631C14.0306 1.67058 14.6046 1.80279 15.1097 1.99912C15.6322 2.2002 16.0723 2.47254 16.5125 2.91191C16.915 3.30766 17.2265 3.78638 17.4253 4.31475C17.6208 4.81904 17.7538 5.39379 17.7934 6.23691C17.8306 7.08083 17.8409 7.34921 17.8409 9.50016C17.8409 11.6511 17.833 11.9195 17.7934 12.7634C17.7538 13.6065 17.6208 14.1805 17.4253 14.6856C17.2271 15.2142 16.9155 15.6931 16.5125 16.0884C16.1166 16.4908 15.6379 16.8023 15.1097 17.0012C14.6054 17.1967 14.0306 17.3297 13.1875 17.3693C12.3436 17.4065 12.0752 17.4168 9.92424 17.4168C7.77328 17.4168 7.5049 17.4089 6.66099 17.3693C5.81786 17.3297 5.2439 17.1967 4.73882 17.0012C4.21024 16.8029 3.73144 16.4913 3.33599 16.0884C2.93335 15.6927 2.62185 15.214 2.42319 14.6856C2.22686 14.1813 2.09465 13.6065 2.05507 12.7634C2.01786 11.9195 2.00757 11.6511 2.00757 9.50016C2.00757 7.34921 2.01548 7.08083 2.05507 6.23691C2.09465 5.393 2.22686 4.81983 2.42319 4.31475C2.6213 3.78605 2.93287 3.30721 3.33599 2.91191C3.73156 2.50914 4.21032 2.19762 4.73882 1.99912C5.2439 1.80279 5.81707 1.67058 6.66099 1.631C7.5049 1.59379 7.77328 1.5835 9.92424 1.5835ZM9.92424 5.54183C8.87442 5.54183 7.8676 5.95887 7.12527 6.7012C6.38294 7.44353 5.9659 8.45035 5.9659 9.50016C5.9659 10.55 6.38294 11.5568 7.12527 12.2991C7.8676 13.0415 8.87442 13.4585 9.92424 13.4585C10.9741 13.4585 11.9809 13.0415 12.7232 12.2991C13.4655 11.5568 13.8826 10.55 13.8826 9.50016C13.8826 8.45035 13.4655 7.44353 12.7232 6.7012C11.9809 5.95887 10.9741 5.54183 9.92424 5.54183ZM15.0701 5.34391C15.0701 5.08146 14.9658 4.82975 14.7802 4.64417C14.5946 4.45859 14.3429 4.35433 14.0805 4.35433C13.818 4.35433 13.5663 4.45859 13.3807 4.64417C13.1952 4.82975 13.0909 5.08146 13.0909 5.34391C13.0909 5.60637 13.1952 5.85807 13.3807 6.04365C13.5663 6.22924 13.818 6.3335 14.0805 6.3335C14.3429 6.3335 14.5946 6.22924 14.7802 6.04365C14.9658 5.85807 15.0701 5.60637 15.0701 5.34391ZM9.92424 7.12516C10.5541 7.12516 11.1582 7.37539 11.6036 7.82078C12.049 8.26618 12.2992 8.87027 12.2992 9.50016C12.2992 10.1301 12.049 10.7341 11.6036 11.1795C11.1582 11.6249 10.5541 11.8752 9.92424 11.8752C9.29435 11.8752 8.69026 11.6249 8.24486 11.1795C7.79946 10.7341 7.54924 10.1301 7.54924 9.50016C7.54924 8.87027 7.79946 8.26618 8.24486 7.82078C8.69026 7.37539 9.29435 7.12516 9.92424 7.12516Z" fill="black" fill-opacity="0.5"/>
</g>
<defs>
<clipPath id="clip0_1097_1126">
<rect width="19" height="19" fill="white" transform="translate(0.424316)"/>
</clipPath>
</defs>
</svg>
