<svg width="19" height="19" viewBox="0 0 19 19" fill="none" xmlns="http://www.w3.org/2000/svg">
<g clip-path="url(#clip0_1097_1129)">
<path d="M9.49992 17.4168C5.12754 17.4168 1.58325 13.8725 1.58325 9.50016C1.58325 5.12779 5.12754 1.5835 9.49992 1.5835C13.8723 1.5835 17.4166 5.12779 17.4166 9.50016C17.4166 13.8725 13.8723 17.4168 9.49992 17.4168ZM7.03784 10.4264L7.04813 10.4209L7.73688 12.693C7.82554 12.9392 7.94746 12.9835 8.0955 12.9629C8.24434 12.9431 8.32271 12.8632 8.42009 12.7697L9.36059 11.8609L11.3793 13.3556C11.7483 13.559 12.0135 13.4537 12.1053 13.0136L13.4171 6.82116C13.562 6.24483 13.3086 6.01366 12.8613 6.19733L5.15604 9.174C4.63038 9.38458 4.63354 9.67908 5.06104 9.8097L7.03784 10.4272V10.4264Z" fill="black" fill-opacity="0.5"/>
</g>
<defs>
<clipPath id="clip0_1097_1129">
<rect width="19" height="19" fill="white"/>
</clipPath>
</defs>
</svg>
